<svg width="121" height="28" viewBox="0 0 121 28" fill="none" xmlns="http://www.w3.org/2000/svg">
  <path d="M9.82313 27.9599C4.04954 27.9599 0 23.2331 0 17.4649C0 11.7768 4.65095 7.00994 10.7453 7.00994C16.9599 7.00994 21.5307 11.4964 21.5307 17.4649V27.4391H16.118V25.1158C14.7147 26.8783 12.5496 27.9599 9.82313 27.9599ZM10.7453 22.6323C13.6722 22.6323 15.8373 20.3089 15.8373 17.5049C15.8373 14.7009 13.6722 12.3776 10.7453 12.3776C7.81841 12.3776 5.69341 14.7009 5.69341 17.5049C5.69341 20.3089 7.81841 22.6323 10.7453 22.6323Z" fill="#123263"/>
  <path d="M62.7702 27.9599C56.5956 27.9599 51.9447 23.6737 51.9447 17.3447C51.9447 11.6165 56.1145 6.88977 62.249 6.88977C68.5438 6.88977 72.1924 11.5364 72.1924 16.9441V18.6265H57.4376C57.8386 21.2703 59.8834 23.0328 62.7301 23.0328C64.8952 23.0328 66.6994 21.9913 67.6216 20.1487L71.9919 22.3519C70.2678 25.917 66.9801 27.9599 62.7702 27.9599ZM57.6782 15.462H66.5391C66.2985 13.4191 64.6145 11.8569 62.2089 11.8569C59.723 11.8569 58.0791 13.4592 57.6782 15.462Z" fill="#123263"/>
  <path d="M85.1021 12.5779C81.8946 12.5779 80.4512 15.1816 80.4512 18.226V27.4391H74.7578V17.545C74.7578 11.7768 78.1658 7.05 85.1021 7.05C92.0385 7.05 95.5267 11.7367 95.5267 17.545V27.4391H89.8333V18.226C89.8333 15.1816 88.3498 12.5779 85.1021 12.5779Z" fill="#123263"/>
  <path fill-rule="evenodd" clip-rule="evenodd" d="M42.7005 9.38021L42.6224 9.23578C42.0485 8.17445 41.2633 7.37204 40.2654 6.8208C39.2659 6.26873 38.0922 5.98795 36.7354 5.98795C35.2338 5.98795 33.9125 6.32949 32.7635 7.00557C31.6151 7.68126 30.7164 8.64647 30.0664 9.90924C29.4171 11.1705 29.0884 12.6331 29.0884 14.3045C29.0884 16.0268 29.4173 17.5136 30.0654 18.7734C30.7397 20.0357 31.6628 21.0014 32.8361 21.6777C34.0093 22.3539 35.3808 22.6965 36.9596 22.6965C38.902 22.6965 40.4673 22.1834 41.6786 21.1778C42.8204 20.2064 43.6018 18.8803 44.014 17.1824H35.6944V13.1549H49.7897V17.497L49.7848 17.5229C49.4279 19.3997 48.6631 21.1342 47.4936 22.7242C46.3212 24.318 44.806 25.6011 42.9531 26.5741L42.9518 26.5747C41.1152 27.5268 39.0535 28 36.7728 28C34.2143 28 31.8889 27.4246 29.8024 26.2697L29.7989 26.2677C27.7385 25.0875 26.1091 23.4565 24.914 21.3789L24.9127 21.3767C23.7409 19.2953 23.158 16.9355 23.158 14.3045C23.158 11.6736 23.7409 9.31376 24.9127 7.23238L24.9132 7.23142C26.1084 5.12822 27.7384 3.49616 29.8007 2.34039C31.887 1.15998 34.2005 0.571411 36.7354 0.571411C39.7216 0.571411 42.3293 1.31232 44.5472 2.80349C46.7696 4.2725 48.3015 6.34877 49.1416 9.01925L49.2551 9.38021H42.7005Z" fill="#123263"/>
  <path d="M105.049 19.0385H98.4961L102.944 11.8462C103.685 10.6616 103.952 9.98464 103.952 9.33592C103.952 8.65899 103.655 8.01027 102.944 6.85386L98.674 0H105.078L108.103 5.21796C108.458 5.83847 108.755 6.48719 108.962 7.16412H110.534C110.741 6.48719 111.038 5.83847 111.394 5.21796L114.418 0H120.822L116.553 6.85386C115.841 8.01027 115.545 8.65899 115.545 9.33592C115.545 9.98464 115.811 10.6616 116.553 11.8462L121 19.0385H114.447L111.394 13.8487C111.038 13.2282 110.741 12.6077 110.534 11.959H108.962C108.755 12.6077 108.458 13.2282 108.103 13.8487L105.049 19.0385Z" fill="#123263"/>
  <path d="M105.049 19.0385H98.4961L102.944 11.8462C103.685 10.6616 103.952 9.98464 103.952 9.33592C103.952 8.65899 103.655 8.01027 102.944 6.85386L98.674 0H105.078L108.103 5.21796C108.458 5.83847 108.755 6.48719 108.962 7.16412H110.534C110.741 6.48719 111.038 5.83847 111.394 5.21796L114.418 0H120.822L116.553 6.85386C115.841 8.01027 115.545 8.65899 115.545 9.33592C115.545 9.98464 115.811 10.6616 116.553 11.8462L121 19.0385H114.447L111.394 13.8487C111.038 13.2282 110.741 12.6077 110.534 11.959H108.962C108.755 12.6077 108.458 13.2282 108.103 13.8487L105.049 19.0385Z" fill="url(#paint0_linear_10113_30500)"/>
  <defs>
    <linearGradient id="paint0_linear_10113_30500" x1="116.174" y1="5.75523" x2="107.366" y2="16.1668" gradientUnits="userSpaceOnUse">
      <stop offset="0.15" stop-color="#BF42B1"/>
      <stop offset="1" stop-color="#24ADDB"/>
    </linearGradient>
  </defs>
</svg>
